<?xml version="1.0" encoding="UTF-8"?>
<svg id="Layer_1" data-name="Layer 1" xmlns="http://www.w3.org/2000/svg" viewBox="0 0 147.51 227.87">
  <defs>
    <style>
      .cls-1 {
        fill: #455e70;
      }

      .cls-2 {
        fill: #224f71;
      }

      .cls-3 {
        fill: none;
      }
    </style>
  </defs>
  <path class="cls-2" d="M91.05,121.31l-18.68-6.61v-14.32l33.94,12.01,19.47-11.37,3.07-1.79-3.07-1.09-6.59-2.35-30.36-10.81-16.46-5.86V46.63c0-.23,0-.47,0-.7s0-.47,0-.7v-1.73h.1c1.23-13.62,12.67-24.29,26.6-24.29s25.38,10.67,26.6,24.29h.1v1.73c0,.23,0,.47,0,.7s0,.47,0,.7v28.47l1.32,.47,20.38,7.26V49.7c.01-.42,.02-.85,.02-1.27s0-.85-.02-1.27v-3.13h-.18C145.09,19.34,124.35,0,99.08,0S53.08,19.34,50.86,44.03h-.18v3.13c-.01,.4-.01,.79-.02,1.19,0,.03,0,.06,0,.08,0,.43,0,.85,.02,1.27v78.39l17.88,6.37,3.83-2.23,18.68-10.91Z"/>
  <polygon class="cls-3" points="72.38 114.71 91.05 121.31 106.32 112.4 72.38 100.39 72.38 114.71"/>
  <polygon class="cls-3" points="125.79 130.87 125.79 119.28 107.19 112.7 92.29 121.75 125.79 133.6 125.79 130.87"/>
  <path class="cls-1" d="M147.5,162.56v-56.7l-18.31-6.52-3.4,2.06-18.6,11.29,18.6,6.58v14.32l-33.5-11.85-1.24-.44-18.68,10.91-3.83,2.23,.81,.29,.96,.34,2.05-1.25-2.05,1.25,2.05,.73h0l27.35,9.74,26.07,9.28v26.4c0,.23,0,.47,0,.7s0,.47,0,.7v1.73h-.1c-1.23,13.62-12.67,24.29-26.6,24.29s-25.38-10.67-26.6-24.29h-.1v-1.73c0-.23,0-.47,0-.7s0-.47,0-.7v-22.38l-10.93-3.89-10.78-3.84v27.04c-.01,.42-.02,.85-.02,1.27s0,.85,.02,1.27v3.13h.18c2.22,24.68,22.97,44.03,48.23,44.03s45.42-18.81,48.12-43c.04-.34,.07-.68,.1-1.03h.18v-3.13c.01-.42,.02-.85,.02-1.27s0-.85-.02-1.27v-15.6Z"/>
</svg>